<svg width="860" height="306" viewBox="0 0 860 306" fill="none" xmlns="http://www.w3.org/2000/svg">
<rect width="860" height="306" rx="20" fill="white"/>
<rect x="46" y="252" width="754" height="10" rx="5" fill="#F7F7F7"/>
<rect x="46" y="252" width="489" height="10" rx="5" fill="#D6EB31"/>
<path d="M778.46 222.9C779.74 221.793 780.747 220.887 781.48 220.18C782.227 219.46 782.847 218.713 783.34 217.94C783.833 217.167 784.08 216.393 784.08 215.62C784.08 214.82 783.887 214.193 783.5 213.74C783.127 213.287 782.533 213.06 781.72 213.06C780.933 213.06 780.32 213.313 779.88 213.82C779.453 214.313 779.227 214.98 779.2 215.82H777C777.04 214.3 777.493 213.14 778.36 212.34C779.24 211.527 780.353 211.12 781.7 211.12C783.153 211.12 784.287 211.52 785.1 212.32C785.927 213.12 786.34 214.187 786.34 215.52C786.34 216.48 786.093 217.407 785.6 218.3C785.12 219.18 784.54 219.973 783.86 220.68C783.193 221.373 782.34 222.18 781.3 223.1L780.4 223.9H786.74V225.8H777.02V224.14L778.46 222.9ZM797.983 213.18L792.423 226H790.123L795.743 213.42H788.343V211.48H797.983V213.18Z" fill="black"/>
<path d="M46.74 219.02C46.74 217.66 47.0533 216.44 47.68 215.36C48.32 214.28 49.18 213.44 50.26 212.84C51.3533 212.227 52.5467 211.92 53.84 211.92C55.32 211.92 56.6333 212.287 57.78 213.02C58.94 213.74 59.78 214.767 60.3 216.1H57.56C57.2 215.367 56.7 214.82 56.06 214.46C55.42 214.1 54.68 213.92 53.84 213.92C52.92 213.92 52.1 214.127 51.38 214.54C50.66 214.953 50.0933 215.547 49.68 216.32C49.28 217.093 49.08 217.993 49.08 219.02C49.08 220.047 49.28 220.947 49.68 221.72C50.0933 222.493 50.66 223.093 51.38 223.52C52.1 223.933 52.92 224.14 53.84 224.14C54.68 224.14 55.42 223.96 56.06 223.6C56.7 223.24 57.2 222.693 57.56 221.96H60.3C59.78 223.293 58.94 224.32 57.78 225.04C56.6333 225.76 55.32 226.12 53.84 226.12C52.5333 226.12 51.34 225.82 50.26 225.22C49.18 224.607 48.32 223.76 47.68 222.68C47.0533 221.6 46.74 220.38 46.74 219.02ZM72.9488 214.98V226H70.6688V224.7C70.3088 225.153 69.8354 225.513 69.2488 225.78C68.6754 226.033 68.0621 226.16 67.4088 226.16C66.5421 226.16 65.7621 225.98 65.0688 225.62C64.3888 225.26 63.8488 224.727 63.4488 224.02C63.0621 223.313 62.8688 222.46 62.8688 221.46V214.98H65.1288V221.12C65.1288 222.107 65.3754 222.867 65.8688 223.4C66.3621 223.92 67.0354 224.18 67.8888 224.18C68.7421 224.18 69.4154 223.92 69.9088 223.4C70.4154 222.867 70.6688 222.107 70.6688 221.12V214.98H72.9488ZM78.237 216.58C78.5704 216.02 79.0104 215.587 79.557 215.28C80.117 214.96 80.777 214.8 81.537 214.8V217.16H80.957C80.0637 217.16 79.3837 217.387 78.917 217.84C78.4637 218.293 78.237 219.08 78.237 220.2V226H75.957V214.98H78.237V216.58ZM85.9128 216.58C86.2461 216.02 86.6861 215.587 87.2328 215.28C87.7928 214.96 88.4528 214.8 89.2128 214.8V217.16H88.6328C87.7395 217.16 87.0595 217.387 86.5928 217.84C86.1395 218.293 85.9128 219.08 85.9128 220.2V226H83.6328V214.98H85.9128V216.58ZM101.409 220.22C101.409 220.633 101.382 221.007 101.329 221.34H92.9086C92.9753 222.22 93.3019 222.927 93.8886 223.46C94.4753 223.993 95.1953 224.26 96.0486 224.26C97.2753 224.26 98.1419 223.747 98.6486 222.72H101.109C100.775 223.733 100.169 224.567 99.2886 225.22C98.4219 225.86 97.3419 226.18 96.0486 226.18C94.9953 226.18 94.0486 225.947 93.2086 225.48C92.3819 225 91.7286 224.333 91.2486 223.48C90.7819 222.613 90.5486 221.613 90.5486 220.48C90.5486 219.347 90.7753 218.353 91.2286 217.5C91.6953 216.633 92.3419 215.967 93.1686 215.5C94.0086 215.033 94.9686 214.8 96.0486 214.8C97.0886 214.8 98.0153 215.027 98.8286 215.48C99.6419 215.933 100.275 216.573 100.729 217.4C101.182 218.213 101.409 219.153 101.409 220.22ZM99.0286 219.5C99.0153 218.66 98.7153 217.987 98.1286 217.48C97.5419 216.973 96.8153 216.72 95.9486 216.72C95.1619 216.72 94.4886 216.973 93.9286 217.48C93.3686 217.973 93.0353 218.647 92.9286 219.5H99.0286ZM109.212 214.8C110.079 214.8 110.852 214.98 111.532 215.34C112.226 215.7 112.766 216.233 113.152 216.94C113.539 217.647 113.732 218.5 113.732 219.5V226H111.472V219.84C111.472 218.853 111.226 218.1 110.732 217.58C110.239 217.047 109.566 216.78 108.712 216.78C107.859 216.78 107.179 217.047 106.672 217.58C106.179 218.1 105.932 218.853 105.932 219.84V226H103.652V214.98H105.932V216.24C106.306 215.787 106.779 215.433 107.352 215.18C107.939 214.927 108.559 214.8 109.212 214.8ZM119.301 216.84V222.94C119.301 223.353 119.394 223.653 119.581 223.84C119.781 224.013 120.114 224.1 120.581 224.1H121.981V226H120.181C119.154 226 118.367 225.76 117.821 225.28C117.274 224.8 117.001 224.02 117.001 222.94V216.84H115.701V214.98H117.001V212.24H119.301V214.98H121.981V216.84H119.301ZM136.717 218.86C137.464 218.993 138.097 219.387 138.617 220.04C139.137 220.693 139.397 221.433 139.397 222.26C139.397 222.967 139.211 223.607 138.837 224.18C138.477 224.74 137.951 225.187 137.257 225.52C136.564 225.84 135.757 226 134.837 226H129.277V212.1H134.577C135.524 212.1 136.337 212.26 137.017 212.58C137.697 212.9 138.211 213.333 138.557 213.88C138.904 214.413 139.077 215.013 139.077 215.68C139.077 216.48 138.864 217.147 138.437 217.68C138.011 218.213 137.437 218.607 136.717 218.86ZM131.557 217.94H134.377C135.124 217.94 135.704 217.773 136.117 217.44C136.544 217.093 136.757 216.6 136.757 215.96C136.757 215.333 136.544 214.847 136.117 214.5C135.704 214.14 135.124 213.96 134.377 213.96H131.557V217.94ZM134.637 224.14C135.411 224.14 136.017 223.953 136.457 223.58C136.897 223.207 137.117 222.687 137.117 222.02C137.117 221.34 136.884 220.8 136.417 220.4C135.951 220 135.331 219.8 134.557 219.8H131.557V224.14H134.637ZM156.515 212.1V226H154.235V216.48L149.995 226H148.415L144.155 216.48V226H141.875V212.1H144.335L149.215 223L154.075 212.1H156.515ZM161.792 212.1V226H159.512V212.1H161.792Z" fill="black"/>
<rect x="46" y="167" width="754" height="10" rx="5" fill="#F7F7F7"/>
<rect x="46" y="167" width="377" height="10" rx="5" fill="#D6EB31"/>
<path d="M771.6 128.38H764.9V132.36C765.18 131.987 765.593 131.673 766.14 131.42C766.7 131.167 767.293 131.04 767.92 131.04C769.04 131.04 769.947 131.28 770.64 131.76C771.347 132.24 771.847 132.847 772.14 133.58C772.447 134.313 772.6 135.087 772.6 135.9C772.6 136.887 772.407 137.767 772.02 138.54C771.647 139.3 771.08 139.9 770.32 140.34C769.573 140.78 768.653 141 767.56 141C766.107 141 764.94 140.64 764.06 139.92C763.18 139.2 762.653 138.247 762.48 137.06H764.7C764.847 137.687 765.173 138.187 765.68 138.56C766.187 138.92 766.82 139.1 767.58 139.1C768.527 139.1 769.233 138.813 769.7 138.24C770.18 137.667 770.42 136.907 770.42 135.96C770.42 135 770.18 134.267 769.7 133.76C769.22 133.24 768.513 132.98 767.58 132.98C766.927 132.98 766.373 133.147 765.92 133.48C765.48 133.8 765.16 134.24 764.96 134.8H762.8V126.38H771.6V128.38ZM774.973 133.52C774.973 131.213 775.36 129.413 776.133 128.12C776.92 126.813 778.267 126.16 780.173 126.16C782.08 126.16 783.42 126.813 784.193 128.12C784.98 129.413 785.373 131.213 785.373 133.52C785.373 135.853 784.98 137.68 784.193 139C783.42 140.307 782.08 140.96 780.173 140.96C778.267 140.96 776.92 140.307 776.133 139C775.36 137.68 774.973 135.853 774.973 133.52ZM783.133 133.52C783.133 132.44 783.06 131.527 782.913 130.78C782.78 130.033 782.5 129.427 782.073 128.96C781.647 128.48 781.013 128.24 780.173 128.24C779.333 128.24 778.7 128.48 778.273 128.96C777.847 129.427 777.56 130.033 777.413 130.78C777.28 131.527 777.213 132.44 777.213 133.52C777.213 134.64 777.28 135.58 777.413 136.34C777.547 137.1 777.827 137.713 778.253 138.18C778.693 138.647 779.333 138.88 780.173 138.88C781.013 138.88 781.647 138.647 782.073 138.18C782.513 137.713 782.8 137.1 782.933 136.34C783.067 135.58 783.133 134.64 783.133 133.52ZM787.426 129.94C787.426 128.967 787.706 128.207 788.266 127.66C788.839 127.1 789.573 126.82 790.466 126.82C791.359 126.82 792.086 127.1 792.646 127.66C793.219 128.207 793.506 128.967 793.506 129.94C793.506 130.913 793.219 131.68 792.646 132.24C792.086 132.8 791.359 133.08 790.466 133.08C789.573 133.08 788.839 132.8 788.266 132.24C787.706 131.68 787.426 130.913 787.426 129.94ZM799.626 127.08L791.646 141H789.406L797.386 127.08H799.626ZM790.466 128.2C789.626 128.2 789.206 128.78 789.206 129.94C789.206 131.113 789.626 131.7 790.466 131.7C790.866 131.7 791.173 131.56 791.386 131.28C791.613 130.987 791.726 130.54 791.726 129.94C791.726 128.78 791.306 128.2 790.466 128.2ZM795.566 138.12C795.566 137.147 795.846 136.387 796.406 135.84C796.979 135.28 797.713 135 798.606 135C799.486 135 800.206 135.28 800.766 135.84C801.339 136.387 801.626 137.147 801.626 138.12C801.626 139.093 801.339 139.86 800.766 140.42C800.206 140.98 799.486 141.26 798.606 141.26C797.713 141.26 796.979 140.98 796.406 140.42C795.846 139.86 795.566 139.093 795.566 138.12ZM798.586 136.38C797.746 136.38 797.326 136.96 797.326 138.12C797.326 139.28 797.746 139.86 798.586 139.86C799.426 139.86 799.846 139.28 799.846 138.12C799.846 136.96 799.426 136.38 798.586 136.38Z" fill="black"/>
<path d="M65.6 127.1L61.48 141H58.9L55.98 130.48L52.88 141L50.32 141.02L46.38 127.1H48.8L51.68 138.42L54.8 127.1H57.36L60.26 138.36L63.16 127.1H65.6ZM77.5805 135.22C77.5805 135.633 77.5538 136.007 77.5005 136.34H69.0805C69.1471 137.22 69.4738 137.927 70.0605 138.46C70.6471 138.993 71.3671 139.26 72.2205 139.26C73.4471 139.26 74.3138 138.747 74.8205 137.72H77.2805C76.9471 138.733 76.3405 139.567 75.4605 140.22C74.5938 140.86 73.5138 141.18 72.2205 141.18C71.1671 141.18 70.2205 140.947 69.3805 140.48C68.5538 140 67.9005 139.333 67.4205 138.48C66.9538 137.613 66.7205 136.613 66.7205 135.48C66.7205 134.347 66.9471 133.353 67.4005 132.5C67.8671 131.633 68.5138 130.967 69.3405 130.5C70.1805 130.033 71.1405 129.8 72.2205 129.8C73.2605 129.8 74.1871 130.027 75.0005 130.48C75.8138 130.933 76.4471 131.573 76.9005 132.4C77.3538 133.213 77.5805 134.153 77.5805 135.22ZM75.2005 134.5C75.1871 133.66 74.8871 132.987 74.3005 132.48C73.7138 131.973 72.9871 131.72 72.1205 131.72C71.3338 131.72 70.6605 131.973 70.1005 132.48C69.5405 132.973 69.2071 133.647 69.1005 134.5H75.2005ZM80.9842 128.52C80.5709 128.52 80.2242 128.38 79.9442 128.1C79.6642 127.82 79.5242 127.473 79.5242 127.06C79.5242 126.647 79.6642 126.3 79.9442 126.02C80.2242 125.74 80.5709 125.6 80.9842 125.6C81.3842 125.6 81.7242 125.74 82.0042 126.02C82.2842 126.3 82.4242 126.647 82.4242 127.06C82.4242 127.473 82.2842 127.82 82.0042 128.1C81.7242 128.38 81.3842 128.52 80.9842 128.52ZM82.1042 129.98V141H79.8242V129.98H82.1042ZM89.5377 129.8C90.391 129.8 91.1443 129.973 91.7977 130.32C92.4643 130.653 92.9843 131.073 93.3577 131.58V129.98H95.6577V141.18C95.6577 142.193 95.4443 143.093 95.0177 143.88C94.591 144.68 93.971 145.307 93.1577 145.76C92.3577 146.213 91.3977 146.44 90.2777 146.44C88.7843 146.44 87.5443 146.087 86.5577 145.38C85.571 144.687 85.011 143.74 84.8777 142.54H87.1377C87.311 143.113 87.6777 143.573 88.2377 143.92C88.811 144.28 89.491 144.46 90.2777 144.46C91.1977 144.46 91.9377 144.18 92.4977 143.62C93.071 143.06 93.3577 142.247 93.3577 141.18V139.34C92.971 139.86 92.4443 140.3 91.7777 140.66C91.1243 141.007 90.3777 141.18 89.5377 141.18C88.5777 141.18 87.6977 140.94 86.8977 140.46C86.111 139.967 85.4843 139.287 85.0177 138.42C84.5643 137.54 84.3377 136.547 84.3377 135.44C84.3377 134.333 84.5643 133.353 85.0177 132.5C85.4843 131.647 86.111 130.987 86.8977 130.52C87.6977 130.04 88.5777 129.8 89.5377 129.8ZM93.3577 135.48C93.3577 134.72 93.1977 134.06 92.8777 133.5C92.571 132.94 92.1643 132.513 91.6577 132.22C91.151 131.927 90.6043 131.78 90.0177 131.78C89.431 131.78 88.8843 131.927 88.3777 132.22C87.871 132.5 87.4577 132.92 87.1377 133.48C86.831 134.027 86.6777 134.68 86.6777 135.44C86.6777 136.2 86.831 136.867 87.1377 137.44C87.4577 138.013 87.871 138.453 88.3777 138.76C88.8977 139.053 89.4443 139.2 90.0177 139.2C90.6043 139.2 91.151 139.053 91.6577 138.76C92.1643 138.467 92.571 138.04 92.8777 137.48C93.1977 136.907 93.3577 136.24 93.3577 135.48ZM104.352 129.8C105.192 129.8 105.939 129.98 106.592 130.34C107.259 130.7 107.779 131.233 108.152 131.94C108.539 132.647 108.732 133.5 108.732 134.5V141H106.472V134.84C106.472 133.853 106.226 133.1 105.732 132.58C105.239 132.047 104.566 131.78 103.712 131.78C102.859 131.78 102.179 132.047 101.672 132.58C101.179 133.1 100.932 133.853 100.932 134.84V141H98.6523V126.2H100.932V131.26C101.319 130.793 101.806 130.433 102.392 130.18C102.992 129.927 103.646 129.8 104.352 129.8ZM114.301 131.84V137.94C114.301 138.353 114.394 138.653 114.581 138.84C114.781 139.013 115.114 139.1 115.581 139.1H116.981V141H115.181C114.154 141 113.367 140.76 112.821 140.28C112.274 139.8 112.001 139.02 112.001 137.94V131.84H110.701V129.98H112.001V127.24H114.301V129.98H116.981V131.84H114.301ZM134.337 131.1C133.977 130.407 133.477 129.887 132.837 129.54C132.197 129.18 131.457 129 130.617 129C129.697 129 128.877 129.207 128.157 129.62C127.437 130.033 126.871 130.62 126.457 131.38C126.057 132.14 125.857 133.02 125.857 134.02C125.857 135.02 126.057 135.907 126.457 136.68C126.871 137.44 127.437 138.027 128.157 138.44C128.877 138.853 129.697 139.06 130.617 139.06C131.857 139.06 132.864 138.713 133.637 138.02C134.411 137.327 134.884 136.387 135.057 135.2H129.837V133.38H137.497V135.16C137.351 136.24 136.964 137.233 136.337 138.14C135.724 139.047 134.917 139.773 133.917 140.32C132.931 140.853 131.831 141.12 130.617 141.12C129.311 141.12 128.117 140.82 127.037 140.22C125.957 139.607 125.097 138.76 124.457 137.68C123.831 136.6 123.517 135.38 123.517 134.02C123.517 132.66 123.831 131.44 124.457 130.36C125.097 129.28 125.957 128.44 127.037 127.84C128.131 127.227 129.324 126.92 130.617 126.92C132.097 126.92 133.411 127.287 134.557 128.02C135.717 128.74 136.557 129.767 137.077 131.1H134.337ZM144.526 141.18C143.486 141.18 142.546 140.947 141.706 140.48C140.866 140 140.206 139.333 139.726 138.48C139.246 137.613 139.006 136.613 139.006 135.48C139.006 134.36 139.253 133.367 139.746 132.5C140.239 131.633 140.913 130.967 141.766 130.5C142.619 130.033 143.573 129.8 144.626 129.8C145.679 129.8 146.633 130.033 147.486 130.5C148.339 130.967 149.013 131.633 149.506 132.5C149.999 133.367 150.246 134.36 150.246 135.48C150.246 136.6 149.993 137.593 149.486 138.46C148.979 139.327 148.286 140 147.406 140.48C146.539 140.947 145.579 141.18 144.526 141.18ZM144.526 139.2C145.113 139.2 145.659 139.06 146.166 138.78C146.686 138.5 147.106 138.08 147.426 137.52C147.746 136.96 147.906 136.28 147.906 135.48C147.906 134.68 147.753 134.007 147.446 133.46C147.139 132.9 146.733 132.48 146.226 132.2C145.719 131.92 145.173 131.78 144.586 131.78C143.999 131.78 143.453 131.92 142.946 132.2C142.453 132.48 142.059 132.9 141.766 133.46C141.473 134.007 141.326 134.68 141.326 135.48C141.326 136.667 141.626 137.587 142.226 138.24C142.839 138.88 143.606 139.2 144.526 139.2ZM151.74 135.44C151.74 134.333 151.967 133.353 152.42 132.5C152.887 131.647 153.513 130.987 154.3 130.52C155.1 130.04 155.98 129.8 156.94 129.8C157.807 129.8 158.56 129.973 159.2 130.32C159.853 130.653 160.373 131.073 160.76 131.58V129.98H163.06V141H160.76V139.36C160.373 139.88 159.847 140.313 159.18 140.66C158.513 141.007 157.753 141.18 156.9 141.18C155.953 141.18 155.087 140.94 154.3 140.46C153.513 139.967 152.887 139.287 152.42 138.42C151.967 137.54 151.74 136.547 151.74 135.44ZM160.76 135.48C160.76 134.72 160.6 134.06 160.28 133.5C159.973 132.94 159.567 132.513 159.06 132.22C158.553 131.927 158.007 131.78 157.42 131.78C156.833 131.78 156.287 131.927 155.78 132.22C155.273 132.5 154.86 132.92 154.54 133.48C154.233 134.027 154.08 134.68 154.08 135.44C154.08 136.2 154.233 136.867 154.54 137.44C154.86 138.013 155.273 138.453 155.78 138.76C156.3 139.053 156.847 139.2 157.42 139.2C158.007 139.2 158.553 139.053 159.06 138.76C159.567 138.467 159.973 138.04 160.28 137.48C160.6 136.907 160.76 136.24 160.76 135.48ZM168.335 126.2V141H166.055V126.2H168.335Z" fill="black"/>
<rect x="46" y="82" width="754" height="10" rx="5" fill="#F7F7F7"/>
<rect x="46" y="82" width="718" height="10" rx="5" fill="#D6EB31"/>
<path d="M780.46 52.9C781.74 51.7933 782.747 50.8867 783.48 50.18C784.227 49.46 784.847 48.7133 785.34 47.94C785.833 47.1667 786.08 46.3933 786.08 45.62C786.08 44.82 785.887 44.1933 785.5 43.74C785.127 43.2867 784.533 43.06 783.72 43.06C782.933 43.06 782.32 43.3133 781.88 43.82C781.453 44.3133 781.227 44.98 781.2 45.82H779C779.04 44.3 779.493 43.14 780.36 42.34C781.24 41.5267 782.353 41.12 783.7 41.12C785.153 41.12 786.287 41.52 787.1 42.32C787.927 43.12 788.34 44.1867 788.34 45.52C788.34 46.48 788.093 47.4067 787.6 48.3C787.12 49.18 786.54 49.9733 785.86 50.68C785.193 51.3733 784.34 52.18 783.3 53.1L782.4 53.9H788.74V55.8H779.02V54.14L780.46 52.9ZM800.143 43.38H793.443V47.36C793.723 46.9867 794.136 46.6733 794.683 46.42C795.243 46.1667 795.836 46.04 796.463 46.04C797.583 46.04 798.49 46.28 799.183 46.76C799.89 47.24 800.39 47.8467 800.683 48.58C800.99 49.3133 801.143 50.0867 801.143 50.9C801.143 51.8867 800.95 52.7667 800.563 53.54C800.19 54.3 799.623 54.9 798.863 55.34C798.116 55.78 797.196 56 796.103 56C794.65 56 793.483 55.64 792.603 54.92C791.723 54.2 791.196 53.2467 791.023 52.06H793.243C793.39 52.6867 793.716 53.1867 794.223 53.56C794.73 53.92 795.363 54.1 796.123 54.1C797.07 54.1 797.776 53.8133 798.243 53.24C798.723 52.6667 798.963 51.9067 798.963 50.96C798.963 50 798.723 49.2667 798.243 48.76C797.763 48.24 797.056 47.98 796.123 47.98C795.47 47.98 794.916 48.1467 794.463 48.48C794.023 48.8 793.703 49.24 793.503 49.8H791.343V41.38H800.143V43.38Z" fill="black"/>
<path d="M46.74 49.02C46.74 47.66 47.0533 46.44 47.68 45.36C48.32 44.28 49.18 43.44 50.26 42.84C51.3533 42.2267 52.5467 41.92 53.84 41.92C55.32 41.92 56.6333 42.2867 57.78 43.02C58.94 43.74 59.78 44.7667 60.3 46.1H57.56C57.2 45.3667 56.7 44.82 56.06 44.46C55.42 44.1 54.68 43.92 53.84 43.92C52.92 43.92 52.1 44.1267 51.38 44.54C50.66 44.9533 50.0933 45.5467 49.68 46.32C49.28 47.0933 49.08 47.9933 49.08 49.02C49.08 50.0467 49.28 50.9467 49.68 51.72C50.0933 52.4933 50.66 53.0933 51.38 53.52C52.1 53.9333 52.92 54.14 53.84 54.14C54.68 54.14 55.42 53.96 56.06 53.6C56.7 53.24 57.2 52.6933 57.56 51.96H60.3C59.78 53.2933 58.94 54.32 57.78 55.04C56.6333 55.76 55.32 56.12 53.84 56.12C52.5333 56.12 51.34 55.82 50.26 55.22C49.18 54.6067 48.32 53.76 47.68 52.68C47.0533 51.6 46.74 50.38 46.74 49.02ZM68.6688 44.8C69.5088 44.8 70.2554 44.98 70.9088 45.34C71.5754 45.7 72.0954 46.2333 72.4688 46.94C72.8554 47.6467 73.0488 48.5 73.0488 49.5V56H70.7888V49.84C70.7888 48.8533 70.5421 48.1 70.0488 47.58C69.5554 47.0467 68.8821 46.78 68.0288 46.78C67.1754 46.78 66.4954 47.0467 65.9888 47.58C65.4954 48.1 65.2488 48.8533 65.2488 49.84V56H62.9688V41.2H65.2488V46.26C65.6354 45.7933 66.1221 45.4333 66.7088 45.18C67.3088 44.9267 67.9621 44.8 68.6688 44.8ZM86.057 50.22C86.057 50.6333 86.0304 51.0067 85.977 51.34H77.557C77.6237 52.22 77.9504 52.9267 78.537 53.46C79.1237 53.9933 79.8437 54.26 80.697 54.26C81.9237 54.26 82.7904 53.7467 83.297 52.72H85.757C85.4237 53.7333 84.817 54.5667 83.937 55.22C83.0704 55.86 81.9904 56.18 80.697 56.18C79.6437 56.18 78.697 55.9467 77.857 55.48C77.0304 55 76.377 54.3333 75.897 53.48C75.4304 52.6133 75.197 51.6133 75.197 50.48C75.197 49.3467 75.4237 48.3533 75.877 47.5C76.3437 46.6333 76.9904 45.9667 77.817 45.5C78.657 45.0333 79.617 44.8 80.697 44.8C81.737 44.8 82.6637 45.0267 83.477 45.48C84.2904 45.9333 84.9237 46.5733 85.377 47.4C85.8304 48.2133 86.057 49.1533 86.057 50.22ZM83.677 49.5C83.6637 48.66 83.3637 47.9867 82.777 47.48C82.1904 46.9733 81.4637 46.72 80.597 46.72C79.8104 46.72 79.137 46.9733 78.577 47.48C78.017 47.9733 77.6837 48.6467 77.577 49.5H83.677ZM87.5408 50.48C87.5408 49.3467 87.7674 48.3533 88.2208 47.5C88.6874 46.6333 89.3274 45.9667 90.1408 45.5C90.9541 45.0333 91.8874 44.8 92.9408 44.8C94.2741 44.8 95.3741 45.12 96.2408 45.76C97.1208 46.3867 97.7141 47.2867 98.0208 48.46H95.5608C95.3608 47.9133 95.0408 47.4867 94.6008 47.18C94.1608 46.8733 93.6074 46.72 92.9408 46.72C92.0074 46.72 91.2608 47.0533 90.7008 47.72C90.1541 48.3733 89.8808 49.2933 89.8808 50.48C89.8808 51.6667 90.1541 52.5933 90.7008 53.26C91.2608 53.9267 92.0074 54.26 92.9408 54.26C94.2608 54.26 95.1341 53.68 95.5608 52.52H98.0208C97.7008 53.64 97.1008 54.5333 96.2208 55.2C95.3408 55.8533 94.2474 56.18 92.9408 56.18C91.8874 56.18 90.9541 55.9467 90.1408 55.48C89.3274 55 88.6874 54.3333 88.2208 53.48C87.7674 52.6133 87.5408 51.6133 87.5408 50.48ZM104.653 50.5L109.733 56H106.653L102.573 51.26V56H100.293V41.2H102.573V49.8L106.573 44.98H109.733L104.653 50.5ZM119.827 47.8V49.72H111.607V47.8H119.827ZM125.346 42.1V56H123.066V42.1H125.346ZM133.9 44.8C134.767 44.8 135.54 44.98 136.22 45.34C136.913 45.7 137.453 46.2333 137.84 46.94C138.227 47.6467 138.42 48.5 138.42 49.5V56H136.16V49.84C136.16 48.8533 135.913 48.1 135.42 47.58C134.927 47.0467 134.253 46.78 133.4 46.78C132.547 46.78 131.867 47.0467 131.36 47.58C130.867 48.1 130.62 48.8533 130.62 49.84V56H128.34V44.98H130.62V46.24C130.993 45.7867 131.467 45.4333 132.04 45.18C132.627 44.9267 133.247 44.8 133.9 44.8ZM151.563 59.72C150.257 58.4667 149.25 56.8733 148.543 54.94C147.85 53.0067 147.503 50.9333 147.503 48.72C147.503 46.4533 147.877 44.3133 148.623 42.3C149.383 40.2867 150.497 38.6267 151.963 37.32H154.323V37.54C152.79 38.9533 151.637 40.6467 150.863 42.62C150.09 44.5933 149.703 46.6267 149.703 48.72C149.703 50.7333 150.063 52.68 150.783 54.56C151.503 56.44 152.55 58.0867 153.923 59.5V59.72H151.563ZM158.647 41.2V56H156.367V41.2H158.647ZM160.881 50.44C160.881 49.3333 161.107 48.3533 161.561 47.5C162.027 46.6467 162.654 45.9867 163.441 45.52C164.241 45.04 165.121 44.8 166.081 44.8C166.947 44.8 167.701 44.9733 168.341 45.32C168.994 45.6533 169.514 46.0733 169.901 46.58V44.98H172.201V56H169.901V54.36C169.514 54.88 168.987 55.3133 168.321 55.66C167.654 56.0067 166.894 56.18 166.041 56.18C165.094 56.18 164.227 55.94 163.441 55.46C162.654 54.9667 162.027 54.2867 161.561 53.42C161.107 52.54 160.881 51.5467 160.881 50.44ZM169.901 50.48C169.901 49.72 169.741 49.06 169.421 48.5C169.114 47.94 168.707 47.5133 168.201 47.22C167.694 46.9267 167.147 46.78 166.561 46.78C165.974 46.78 165.427 46.9267 164.921 47.22C164.414 47.5 164.001 47.92 163.681 48.48C163.374 49.0267 163.221 49.68 163.221 50.44C163.221 51.2 163.374 51.8667 163.681 52.44C164.001 53.0133 164.414 53.4533 164.921 53.76C165.441 54.0533 165.987 54.2 166.561 54.2C167.147 54.2 167.694 54.0533 168.201 53.76C168.707 53.4667 169.114 53.04 169.421 52.48C169.741 51.9067 169.901 51.24 169.901 50.48ZM179.195 56.18C178.329 56.18 177.549 56.0267 176.855 55.72C176.175 55.4 175.635 54.9733 175.235 54.44C174.835 53.8933 174.622 53.2867 174.595 52.62H176.955C176.995 53.0867 177.215 53.48 177.615 53.8C178.029 54.1067 178.542 54.26 179.155 54.26C179.795 54.26 180.289 54.14 180.635 53.9C180.995 53.6467 181.175 53.3267 181.175 52.94C181.175 52.5267 180.975 52.22 180.575 52.02C180.189 51.82 179.569 51.6 178.715 51.36C177.889 51.1333 177.215 50.9133 176.695 50.7C176.175 50.4867 175.722 50.16 175.335 49.72C174.962 49.28 174.775 48.7 174.775 47.98C174.775 47.3933 174.949 46.86 175.295 46.38C175.642 45.8867 176.135 45.5 176.775 45.22C177.429 44.94 178.175 44.8 179.015 44.8C180.269 44.8 181.275 45.12 182.035 45.76C182.809 46.3867 183.222 47.2467 183.275 48.34H180.995C180.955 47.8467 180.755 47.4533 180.395 47.16C180.035 46.8667 179.549 46.72 178.935 46.72C178.335 46.72 177.875 46.8333 177.555 47.06C177.235 47.2867 177.075 47.5867 177.075 47.96C177.075 48.2533 177.182 48.5 177.395 48.7C177.609 48.9 177.869 49.06 178.175 49.18C178.482 49.2867 178.935 49.4267 179.535 49.6C180.335 49.8133 180.989 50.0333 181.495 50.26C182.015 50.4733 182.462 50.7933 182.835 51.22C183.209 51.6467 183.402 52.2133 183.415 52.92C183.415 53.5467 183.242 54.1067 182.895 54.6C182.549 55.0933 182.055 55.48 181.415 55.76C180.789 56.04 180.049 56.18 179.195 56.18ZM188.539 46.84V52.94C188.539 53.3533 188.632 53.6533 188.819 53.84C189.019 54.0133 189.352 54.1 189.819 54.1H191.219V56H189.419C188.392 56 187.606 55.76 187.059 55.28C186.512 54.8 186.239 54.02 186.239 52.94V46.84H184.939V44.98H186.239V42.24H188.539V44.98H191.219V46.84H188.539ZM198.176 45.02C198.256 43.78 198.729 42.8133 199.596 42.12C200.476 41.4267 201.596 41.08 202.956 41.08C203.889 41.08 204.696 41.2467 205.376 41.58C206.056 41.9133 206.569 42.3667 206.916 42.94C207.262 43.5133 207.436 44.16 207.436 44.88C207.436 45.7067 207.216 46.4133 206.776 47C206.336 47.5867 205.809 47.98 205.196 48.18V48.26C205.982 48.5 206.596 48.94 207.036 49.58C207.476 50.2067 207.696 51.0133 207.696 52C207.696 52.7867 207.516 53.4867 207.156 54.1C206.796 54.7133 206.262 55.2 205.556 55.56C204.849 55.9067 204.002 56.08 203.016 56.08C201.576 56.08 200.389 55.7133 199.456 54.98C198.536 54.2333 198.042 53.1667 197.976 51.78H200.176C200.229 52.4867 200.502 53.0667 200.996 53.52C201.489 53.96 202.156 54.18 202.996 54.18C203.809 54.18 204.436 53.96 204.876 53.52C205.316 53.0667 205.536 52.4867 205.536 51.78C205.536 50.8467 205.236 50.1867 204.636 49.8C204.049 49.4 203.142 49.2 201.916 49.2H201.396V47.32H201.936C203.016 47.3067 203.836 47.1267 204.396 46.78C204.969 46.4333 205.256 45.8867 205.256 45.14C205.256 44.5 205.049 43.9933 204.636 43.62C204.222 43.2333 203.636 43.04 202.876 43.04C202.129 43.04 201.549 43.2333 201.136 43.62C200.722 43.9933 200.476 44.46 200.396 45.02H198.176ZM210.091 48.52C210.091 46.2133 210.477 44.4133 211.251 43.12C212.037 41.8133 213.384 41.16 215.291 41.16C217.197 41.16 218.537 41.8133 219.311 43.12C220.097 44.4133 220.491 46.2133 220.491 48.52C220.491 50.8533 220.097 52.68 219.311 54C218.537 55.3067 217.197 55.96 215.291 55.96C213.384 55.96 212.037 55.3067 211.251 54C210.477 52.68 210.091 50.8533 210.091 48.52ZM218.251 48.52C218.251 47.44 218.177 46.5267 218.031 45.78C217.897 45.0333 217.617 44.4267 217.191 43.96C216.764 43.48 216.131 43.24 215.291 43.24C214.451 43.24 213.817 43.48 213.391 43.96C212.964 44.4267 212.677 45.0333 212.531 45.78C212.397 46.5267 212.331 47.44 212.331 48.52C212.331 49.64 212.397 50.58 212.531 51.34C212.664 52.1 212.944 52.7133 213.371 53.18C213.811 53.6467 214.451 53.88 215.291 53.88C216.131 53.88 216.764 53.6467 217.191 53.18C217.631 52.7133 217.917 52.1 218.051 51.34C218.184 50.58 218.251 49.64 218.251 48.52ZM227.638 50.44C227.638 49.3333 227.865 48.3533 228.318 47.5C228.785 46.6467 229.412 45.9867 230.198 45.52C230.998 45.04 231.885 44.8 232.858 44.8C233.578 44.8 234.285 44.96 234.978 45.28C235.685 45.5867 236.245 46 236.658 46.52V41.2H238.958V56H236.658V54.34C236.285 54.8733 235.765 55.3133 235.098 55.66C234.445 56.0067 233.692 56.18 232.838 56.18C231.878 56.18 230.998 55.94 230.198 55.46C229.412 54.9667 228.785 54.2867 228.318 53.42C227.865 52.54 227.638 51.5467 227.638 50.44ZM236.658 50.48C236.658 49.72 236.498 49.06 236.178 48.5C235.872 47.94 235.465 47.5133 234.958 47.22C234.452 46.9267 233.905 46.78 233.318 46.78C232.732 46.78 232.185 46.9267 231.678 47.22C231.172 47.5 230.758 47.92 230.438 48.48C230.132 49.0267 229.978 49.68 229.978 50.44C229.978 51.2 230.132 51.8667 230.438 52.44C230.758 53.0133 231.172 53.4533 231.678 53.76C232.198 54.0533 232.745 54.2 233.318 54.2C233.905 54.2 234.452 54.0533 234.958 53.76C235.465 53.4667 235.872 53.04 236.178 52.48C236.498 51.9067 236.658 51.24 236.658 50.48ZM241.193 50.44C241.193 49.3333 241.42 48.3533 241.873 47.5C242.34 46.6467 242.966 45.9867 243.753 45.52C244.553 45.04 245.433 44.8 246.393 44.8C247.26 44.8 248.013 44.9733 248.653 45.32C249.306 45.6533 249.826 46.0733 250.213 46.58V44.98H252.513V56H250.213V54.36C249.826 54.88 249.3 55.3133 248.633 55.66C247.966 56.0067 247.206 56.18 246.353 56.18C245.406 56.18 244.54 55.94 243.753 55.46C242.966 54.9667 242.34 54.2867 241.873 53.42C241.42 52.54 241.193 51.5467 241.193 50.44ZM250.213 50.48C250.213 49.72 250.053 49.06 249.733 48.5C249.426 47.94 249.02 47.5133 248.513 47.22C248.006 46.9267 247.46 46.78 246.873 46.78C246.286 46.78 245.74 46.9267 245.233 47.22C244.726 47.5 244.313 47.92 243.993 48.48C243.686 49.0267 243.533 49.68 243.533 50.44C243.533 51.2 243.686 51.8667 243.993 52.44C244.313 53.0133 244.726 53.4533 245.233 53.76C245.753 54.0533 246.3 54.2 246.873 54.2C247.46 54.2 248.006 54.0533 248.513 53.76C249.02 53.4667 249.426 53.04 249.733 52.48C250.053 51.9067 250.213 51.24 250.213 50.48ZM265.428 44.98L258.668 61.18H256.308L258.548 55.82L254.208 44.98H256.748L259.848 53.38L263.068 44.98H265.428ZM271.148 56.18C270.282 56.18 269.502 56.0267 268.808 55.72C268.128 55.4 267.588 54.9733 267.188 54.44C266.788 53.8933 266.575 53.2867 266.548 52.62H268.908C268.948 53.0867 269.168 53.48 269.568 53.8C269.982 54.1067 270.495 54.26 271.108 54.26C271.748 54.26 272.242 54.14 272.588 53.9C272.948 53.6467 273.128 53.3267 273.128 52.94C273.128 52.5267 272.928 52.22 272.528 52.02C272.142 51.82 271.522 51.6 270.668 51.36C269.842 51.1333 269.168 50.9133 268.648 50.7C268.128 50.4867 267.675 50.16 267.288 49.72C266.915 49.28 266.728 48.7 266.728 47.98C266.728 47.3933 266.902 46.86 267.248 46.38C267.595 45.8867 268.088 45.5 268.728 45.22C269.382 44.94 270.128 44.8 270.968 44.8C272.222 44.8 273.228 45.12 273.988 45.76C274.762 46.3867 275.175 47.2467 275.228 48.34H272.948C272.908 47.8467 272.708 47.4533 272.348 47.16C271.988 46.8667 271.502 46.72 270.888 46.72C270.288 46.72 269.828 46.8333 269.508 47.06C269.188 47.2867 269.028 47.5867 269.028 47.96C269.028 48.2533 269.135 48.5 269.348 48.7C269.562 48.9 269.822 49.06 270.128 49.18C270.435 49.2867 270.888 49.4267 271.488 49.6C272.288 49.8133 272.942 50.0333 273.448 50.26C273.968 50.4733 274.415 50.7933 274.788 51.22C275.162 51.6467 275.355 52.2133 275.368 52.92C275.368 53.5467 275.195 54.1067 274.848 54.6C274.502 55.0933 274.008 55.48 273.368 55.76C272.742 56.04 272.002 56.18 271.148 56.18ZM277.272 59.72V59.5C278.645 58.0867 279.692 56.44 280.412 54.56C281.132 52.68 281.492 50.7333 281.492 48.72C281.492 46.6267 281.105 44.5933 280.332 42.62C279.559 40.6467 278.405 38.9533 276.872 37.54V37.32H279.232C280.699 38.6267 281.805 40.2867 282.552 42.3C283.312 44.3133 283.692 46.4533 283.692 48.72C283.692 50.9333 283.339 53.0067 282.632 54.94C281.939 56.8733 280.939 58.4667 279.632 59.72H277.272Z" fill="black"/>
</svg>
